<svg version="1.1" id="Layer_1" xmlns="http://www.w3.org/2000/svg" xmlns:xlink="http://www.w3.org/1999/xlink" x="0px" y="0px"
	 width="100%" viewBox="0 0 94 96" enable-background="new 0 0 94 96" xml:space="preserve">
<path fill="#DF107A" opacity="1.000000" stroke="none" 
	d="
M0.999999,63.000000 
	C1.000000,53.979103 1.000000,44.958210 1.280677,35.802052 
	C3.279670,32.048595 4.741830,28.279800 6.764046,24.840282 
	C12.979743,14.268209 22.199984,7.407833 33.779903,3.534099 
	C34.999374,3.126160 35.933495,1.865204 37.000000,1.000000 
	C43.687645,1.000000 50.375290,1.000000 57.209560,1.314839 
	C62.264587,3.625449 67.487411,5.082643 72.017128,7.727072 
	C82.006523,13.558848 88.844421,22.273327 93.008041,33.092560 
	C93.306816,33.868923 94.319344,34.370602 95.000000,35.000000 
	C95.000000,44.020897 95.000000,53.041790 94.723419,62.193977 
	C92.723976,65.948036 91.285957,69.742485 89.225227,73.161629 
	C82.849045,83.740921 73.608101,90.789009 61.871761,94.651825 
	C60.775627,95.012604 59.950794,96.197662 59.000000,97.000000 
	C51.979053,97.000000 44.958103,97.000000 37.782692,96.695450 
	C37.146931,95.959846 36.731850,95.283974 36.174725,95.133286 
	C19.503172,90.624084 8.422655,80.208138 2.849021,63.862865 
	C2.696959,63.416927 1.636733,63.280670 0.999999,63.000000 
M60.539352,22.001406 
	C64.605659,26.933598 65.872421,32.403831 62.521610,35.968945 
	C59.709152,38.961277 55.784790,41.464031 51.880993,42.737583 
	C46.749805,44.411560 41.156223,44.668163 35.663567,45.549988 
	C35.663567,54.800304 35.663567,64.178329 35.663567,73.730843 
	C38.586723,73.730843 41.031624,73.730843 43.971851,73.730843 
	C43.971851,66.807846 43.971851,60.060383 43.971851,53.617943 
	C48.682617,52.453007 52.954544,51.708511 57.012638,50.333103 
	C68.073364,46.584297 74.211121,37.717655 72.903214,27.864264 
	C71.614014,18.151768 62.577652,9.983628 51.871593,8.853386 
	C31.385117,6.690621 12.482231,20.696911 8.344447,41.105278 
	C4.139439,61.845211 16.558294,82.169502 36.992584,87.989876 
	C56.723122,93.609802 78.332512,82.951050 85.522156,63.772141 
	C89.383904,53.470646 89.577003,43.082775 84.994881,32.479881 
	C80.498528,35.084267 77.201645,37.249695 78.953369,43.082432 
	C79.952354,46.408764 79.556702,50.339333 79.060020,53.896023 
	C77.300316,66.497284 67.578041,77.151718 55.834267,79.799057 
	C42.231129,82.865540 29.106123,77.909729 21.651455,66.892128 
	C14.311878,56.044628 14.496910,41.500000 21.990601,30.751429 
	C30.435715,18.638182 49.787663,12.478527 60.539352,22.001406 
z"/>
<path fill="#000000" opacity="1.000000" stroke="none" 
	d="
M95.000000,34.531342 
	C94.319344,34.370602 93.306816,33.868923 93.008041,33.092560 
	C88.844421,22.273327 82.006523,13.558848 72.017128,7.727072 
	C67.487411,5.082643 62.264587,3.625449 57.678093,1.314839 
	C70.256828,1.000000 82.513657,1.000000 95.000000,1.000000 
	C95.000000,12.019834 95.000000,23.041258 95.000000,34.531342 
z"/>
<path fill="#000000" opacity="1.000000" stroke="none" 
	d="
M59.468658,97.000000 
	C59.950794,96.197662 60.775627,95.012604 61.871761,94.651825 
	C73.608101,90.789009 82.849045,83.740921 89.225227,73.161629 
	C91.285957,69.742485 92.723976,65.948036 94.723419,62.662636 
	C95.000000,74.262016 95.000000,85.524040 95.000000,97.000000 
	C83.313309,97.000000 71.625313,97.000000 59.468658,97.000000 
z"/>
<path fill="#000000" opacity="1.000000" stroke="none" 
	d="
M36.531342,1.000000 
	C35.933495,1.865204 34.999374,3.126160 33.779903,3.534099 
	C22.199984,7.407833 12.979743,14.268209 6.764046,24.840282 
	C4.741830,28.279800 3.279670,32.048595 1.280677,35.333397 
	C1.000000,23.737982 1.000000,12.475963 1.000000,1.000000 
	C12.686692,1.000000 24.374687,1.000000 36.531342,1.000000 
z"/>
<path fill="#000000" opacity="1.000000" stroke="none" 
	d="
M0.999999,63.468658 
	C1.636733,63.280670 2.696959,63.416927 2.849021,63.862865 
	C8.422655,80.208138 19.503172,90.624084 36.174725,95.133286 
	C36.731850,95.283974 37.146931,95.959846 37.314110,96.695450 
	C25.075508,97.000000 13.151016,97.000000 1.000000,97.000000 
	C1.000000,85.980141 1.000000,74.958725 0.999999,63.468658 
z"/>
<path fill="#FEF8FB" opacity="1.000000" stroke="none" 
	d="
M60.262718,21.746613 
	C49.787663,12.478527 30.435715,18.638182 21.990601,30.751429 
	C14.496910,41.500000 14.311878,56.044628 21.651455,66.892128 
	C29.106123,77.909729 42.231129,82.865540 55.834267,79.799057 
	C67.578041,77.151718 77.300316,66.497284 79.060020,53.896023 
	C79.556702,50.339333 79.952354,46.408764 78.953369,43.082432 
	C77.201645,37.249695 80.498528,35.084267 84.994881,32.479881 
	C89.577003,43.082775 89.383904,53.470646 85.522156,63.772141 
	C78.332512,82.951050 56.723122,93.609802 36.992584,87.989876 
	C16.558294,82.169502 4.139439,61.845211 8.344447,41.105278 
	C12.482231,20.696911 31.385117,6.690621 51.871593,8.853386 
	C62.577652,9.983628 71.614014,18.151768 72.903214,27.864264 
	C74.211121,37.717655 68.073364,46.584297 57.012638,50.333103 
	C52.954544,51.708511 48.682617,52.453007 43.971851,53.617943 
	C43.971851,60.060383 43.971851,66.807846 43.971851,73.730843 
	C41.031624,73.730843 38.586723,73.730843 35.663567,73.730843 
	C35.663567,64.178329 35.663567,54.800304 35.663567,45.549988 
	C41.156223,44.668163 46.749805,44.411560 51.880993,42.737583 
	C55.784790,41.464031 59.709152,38.961277 62.521610,35.968945 
	C65.872421,32.403831 64.605659,26.933598 60.262718,21.746613 
z"/>
</svg>